<mxfile host="app.diagrams.net" modified="2022-04-29T06:43:02.257Z" agent="5.0 (Macintosh; Intel Mac OS X 10_15_7) AppleWebKit/537.36 (KHTML, like Gecko) Chrome/100.0.4896.88 Safari/537.36" etag="5cQSNDT4GzCjBFeYxpbp" version="17.4.4" type="github">
  <diagram id="grWDxUKGPTWDO2RBl-IH" name="Page-1">
    <mxGraphModel dx="1577" dy="887" grid="1" gridSize="10" guides="1" tooltips="1" connect="1" arrows="1" fold="1" page="1" pageScale="1" pageWidth="827" pageHeight="1169" math="0" shadow="0">
      <root>
        <mxCell id="0" />
        <mxCell id="1" parent="0" />
        <mxCell id="ePe9VbSAZ152NeF6bydD-47" value="server:32" style="rounded=0;whiteSpace=wrap;html=1;align=center;verticalAlign=top;fontSize=21;fillColor=#f5f5f5;fontColor=#333333;strokeColor=#666666;" vertex="1" parent="1">
          <mxGeometry x="1780" y="370" width="160" height="190" as="geometry" />
        </mxCell>
        <mxCell id="ePe9VbSAZ152NeF6bydD-3" value="server:32" style="rounded=0;whiteSpace=wrap;html=1;align=center;verticalAlign=top;fontSize=21;fillColor=#f5f5f5;fontColor=#333333;strokeColor=#666666;" vertex="1" parent="1">
          <mxGeometry x="160" y="390" width="160" height="280" as="geometry" />
        </mxCell>
        <mxCell id="ePe9VbSAZ152NeF6bydD-6" value="server:36" style="rounded=0;whiteSpace=wrap;html=1;align=center;verticalAlign=top;fontSize=21;fillColor=#f5f5f5;fontColor=#333333;strokeColor=#666666;" vertex="1" parent="1">
          <mxGeometry x="340" y="390" width="160" height="280" as="geometry" />
        </mxCell>
        <mxCell id="ePe9VbSAZ152NeF6bydD-9" value="server:38" style="rounded=0;whiteSpace=wrap;html=1;align=center;verticalAlign=top;fontSize=21;fillColor=#f5f5f5;fontColor=#333333;strokeColor=#666666;" vertex="1" parent="1">
          <mxGeometry x="520" y="390" width="160" height="280" as="geometry" />
        </mxCell>
        <mxCell id="ePe9VbSAZ152NeF6bydD-22" value="Set" style="rounded=0;whiteSpace=wrap;html=1;fontSize=21;fillColor=#e1d5e7;strokeColor=#9673a6;align=left;verticalAlign=top;" vertex="1" parent="1">
          <mxGeometry x="90" y="450" width="670" height="190" as="geometry" />
        </mxCell>
        <mxCell id="ePe9VbSAZ152NeF6bydD-18" style="edgeStyle=orthogonalEdgeStyle;rounded=0;orthogonalLoop=1;jettySize=auto;html=1;exitX=0.5;exitY=1;exitDx=0;exitDy=0;entryX=0.5;entryY=1;entryDx=0;entryDy=0;fontSize=21;" edge="1" parent="1" source="ePe9VbSAZ152NeF6bydD-3" target="ePe9VbSAZ152NeF6bydD-6">
          <mxGeometry relative="1" as="geometry" />
        </mxCell>
        <mxCell id="ePe9VbSAZ152NeF6bydD-19" style="edgeStyle=orthogonalEdgeStyle;rounded=0;orthogonalLoop=1;jettySize=auto;html=1;exitX=0.5;exitY=1;exitDx=0;exitDy=0;entryX=0.5;entryY=1;entryDx=0;entryDy=0;fontSize=21;" edge="1" parent="1" source="ePe9VbSAZ152NeF6bydD-3" target="ePe9VbSAZ152NeF6bydD-9">
          <mxGeometry relative="1" as="geometry">
            <Array as="points">
              <mxPoint x="240" y="720" />
              <mxPoint x="600" y="720" />
            </Array>
          </mxGeometry>
        </mxCell>
        <mxCell id="ePe9VbSAZ152NeF6bydD-1" value="Data Drive" style="rounded=0;whiteSpace=wrap;html=1;fillColor=#dae8fc;strokeColor=#6c8ebf;fontSize=21;" vertex="1" parent="1">
          <mxGeometry x="180" y="470" width="120" height="60" as="geometry" />
        </mxCell>
        <mxCell id="ePe9VbSAZ152NeF6bydD-2" value="Parity&amp;nbsp;Drive" style="rounded=0;whiteSpace=wrap;html=1;fillColor=#fff2cc;strokeColor=#d6b656;fontSize=21;" vertex="1" parent="1">
          <mxGeometry x="180" y="550" width="120" height="60" as="geometry" />
        </mxCell>
        <mxCell id="ePe9VbSAZ152NeF6bydD-4" value="..." style="text;html=1;strokeColor=none;fillColor=none;align=center;verticalAlign=middle;whiteSpace=wrap;rounded=0;fontSize=32;" vertex="1" parent="1">
          <mxGeometry x="690" y="520" width="60" height="30" as="geometry" />
        </mxCell>
        <mxCell id="ePe9VbSAZ152NeF6bydD-7" value="Data Drive" style="rounded=0;whiteSpace=wrap;html=1;fillColor=#dae8fc;strokeColor=#6c8ebf;fontSize=21;" vertex="1" parent="1">
          <mxGeometry x="360" y="470" width="120" height="60" as="geometry" />
        </mxCell>
        <mxCell id="ePe9VbSAZ152NeF6bydD-8" value="Parity&amp;nbsp;Drive" style="rounded=0;whiteSpace=wrap;html=1;fillColor=#fff2cc;strokeColor=#d6b656;fontSize=21;" vertex="1" parent="1">
          <mxGeometry x="360" y="550" width="120" height="60" as="geometry" />
        </mxCell>
        <mxCell id="ePe9VbSAZ152NeF6bydD-10" value="Data Drive" style="rounded=0;whiteSpace=wrap;html=1;fillColor=#dae8fc;strokeColor=#6c8ebf;fontSize=21;" vertex="1" parent="1">
          <mxGeometry x="540" y="470" width="120" height="60" as="geometry" />
        </mxCell>
        <mxCell id="ePe9VbSAZ152NeF6bydD-11" value="Parity&amp;nbsp;Drive" style="rounded=0;whiteSpace=wrap;html=1;fillColor=#fff2cc;strokeColor=#d6b656;fontSize=21;" vertex="1" parent="1">
          <mxGeometry x="540" y="550" width="120" height="60" as="geometry" />
        </mxCell>
        <mxCell id="ePe9VbSAZ152NeF6bydD-16" style="edgeStyle=orthogonalEdgeStyle;rounded=0;orthogonalLoop=1;jettySize=auto;html=1;exitX=0.5;exitY=1;exitDx=0;exitDy=0;entryX=0.5;entryY=0;entryDx=0;entryDy=0;fontSize=21;" edge="1" parent="1" source="ePe9VbSAZ152NeF6bydD-14" target="ePe9VbSAZ152NeF6bydD-23">
          <mxGeometry relative="1" as="geometry" />
        </mxCell>
        <mxCell id="ePe9VbSAZ152NeF6bydD-14" value="&lt;font style=&quot;font-size: 21px&quot;&gt;client:20&lt;/font&gt;" style="rounded=0;whiteSpace=wrap;html=1;fontSize=21;verticalAlign=middle;fillColor=#f8cecc;strokeColor=#b85450;" vertex="1" parent="1">
          <mxGeometry x="360" y="200" width="120" height="60" as="geometry" />
        </mxCell>
        <mxCell id="ePe9VbSAZ152NeF6bydD-24" style="edgeStyle=orthogonalEdgeStyle;rounded=0;orthogonalLoop=1;jettySize=auto;html=1;exitX=0.25;exitY=1;exitDx=0;exitDy=0;entryX=0.5;entryY=0;entryDx=0;entryDy=0;fontSize=32;" edge="1" parent="1" source="ePe9VbSAZ152NeF6bydD-23" target="ePe9VbSAZ152NeF6bydD-3">
          <mxGeometry relative="1" as="geometry" />
        </mxCell>
        <mxCell id="ePe9VbSAZ152NeF6bydD-25" style="edgeStyle=orthogonalEdgeStyle;rounded=0;orthogonalLoop=1;jettySize=auto;html=1;exitX=0.5;exitY=1;exitDx=0;exitDy=0;entryX=0.5;entryY=0;entryDx=0;entryDy=0;fontSize=32;" edge="1" parent="1" source="ePe9VbSAZ152NeF6bydD-23" target="ePe9VbSAZ152NeF6bydD-6">
          <mxGeometry relative="1" as="geometry" />
        </mxCell>
        <mxCell id="ePe9VbSAZ152NeF6bydD-26" style="edgeStyle=orthogonalEdgeStyle;rounded=0;orthogonalLoop=1;jettySize=auto;html=1;exitX=0.75;exitY=1;exitDx=0;exitDy=0;fontSize=32;" edge="1" parent="1" source="ePe9VbSAZ152NeF6bydD-23" target="ePe9VbSAZ152NeF6bydD-9">
          <mxGeometry relative="1" as="geometry" />
        </mxCell>
        <mxCell id="ePe9VbSAZ152NeF6bydD-23" value="&lt;font style=&quot;font-size: 21px&quot;&gt;nginx:20&lt;br&gt;&lt;/font&gt;" style="rounded=0;whiteSpace=wrap;html=1;fontSize=21;verticalAlign=middle;fillColor=#d5e8d4;strokeColor=#82b366;" vertex="1" parent="1">
          <mxGeometry x="160" y="290" width="520" height="60" as="geometry" />
        </mxCell>
        <mxCell id="ePe9VbSAZ152NeF6bydD-50" style="edgeStyle=orthogonalEdgeStyle;rounded=0;orthogonalLoop=1;jettySize=auto;html=1;exitX=0.5;exitY=1;exitDx=0;exitDy=0;entryX=0.5;entryY=1;entryDx=0;entryDy=0;fontSize=32;" edge="1" parent="1" source="ePe9VbSAZ152NeF6bydD-27" target="ePe9VbSAZ152NeF6bydD-47">
          <mxGeometry relative="1" as="geometry">
            <Array as="points">
              <mxPoint x="1320" y="630" />
              <mxPoint x="1860" y="630" />
            </Array>
          </mxGeometry>
        </mxCell>
        <mxCell id="ePe9VbSAZ152NeF6bydD-27" value="server:20" style="rounded=0;whiteSpace=wrap;html=1;align=center;verticalAlign=top;fontSize=21;fillColor=#f5f5f5;fontColor=#333333;strokeColor=#666666;" vertex="1" parent="1">
          <mxGeometry x="1240" y="370" width="160" height="190" as="geometry" />
        </mxCell>
        <mxCell id="ePe9VbSAZ152NeF6bydD-28" value="server:36" style="rounded=0;whiteSpace=wrap;html=1;align=center;verticalAlign=top;fontSize=21;fillColor=#f5f5f5;fontColor=#333333;strokeColor=#666666;" vertex="1" parent="1">
          <mxGeometry x="1420" y="370" width="160" height="190" as="geometry" />
        </mxCell>
        <mxCell id="ePe9VbSAZ152NeF6bydD-29" value="server:38" style="rounded=0;whiteSpace=wrap;html=1;align=center;verticalAlign=top;fontSize=21;fillColor=#f5f5f5;fontColor=#333333;strokeColor=#666666;" vertex="1" parent="1">
          <mxGeometry x="1600" y="370" width="160" height="190" as="geometry" />
        </mxCell>
        <mxCell id="ePe9VbSAZ152NeF6bydD-30" value="Set" style="rounded=0;whiteSpace=wrap;html=1;fontSize=21;fillColor=#e1d5e7;strokeColor=#9673a6;align=left;verticalAlign=top;" vertex="1" parent="1">
          <mxGeometry x="1170" y="430" width="800" height="100" as="geometry" />
        </mxCell>
        <mxCell id="ePe9VbSAZ152NeF6bydD-31" style="edgeStyle=orthogonalEdgeStyle;rounded=0;orthogonalLoop=1;jettySize=auto;html=1;exitX=0.5;exitY=1;exitDx=0;exitDy=0;entryX=0.5;entryY=1;entryDx=0;entryDy=0;fontSize=21;" edge="1" parent="1" source="ePe9VbSAZ152NeF6bydD-27" target="ePe9VbSAZ152NeF6bydD-28">
          <mxGeometry relative="1" as="geometry" />
        </mxCell>
        <mxCell id="ePe9VbSAZ152NeF6bydD-32" style="edgeStyle=orthogonalEdgeStyle;rounded=0;orthogonalLoop=1;jettySize=auto;html=1;exitX=0.5;exitY=1;exitDx=0;exitDy=0;entryX=0.5;entryY=1;entryDx=0;entryDy=0;fontSize=21;" edge="1" parent="1" source="ePe9VbSAZ152NeF6bydD-27" target="ePe9VbSAZ152NeF6bydD-29">
          <mxGeometry relative="1" as="geometry">
            <Array as="points">
              <mxPoint x="1320" y="610" />
              <mxPoint x="1680" y="610" />
            </Array>
          </mxGeometry>
        </mxCell>
        <mxCell id="ePe9VbSAZ152NeF6bydD-33" value="Data Drive" style="rounded=0;whiteSpace=wrap;html=1;fillColor=#dae8fc;strokeColor=#6c8ebf;fontSize=21;" vertex="1" parent="1">
          <mxGeometry x="1260" y="450" width="120" height="60" as="geometry" />
        </mxCell>
        <mxCell id="ePe9VbSAZ152NeF6bydD-34" value="Parity&amp;nbsp;Drive" style="rounded=0;whiteSpace=wrap;html=1;fillColor=#fff2cc;strokeColor=#d6b656;fontSize=21;" vertex="1" parent="1">
          <mxGeometry x="1800" y="450" width="120" height="60" as="geometry" />
        </mxCell>
        <mxCell id="ePe9VbSAZ152NeF6bydD-35" value="..." style="text;html=1;strokeColor=none;fillColor=none;align=center;verticalAlign=middle;whiteSpace=wrap;rounded=0;fontSize=32;" vertex="1" parent="1">
          <mxGeometry x="1770" y="500" width="60" height="30" as="geometry" />
        </mxCell>
        <mxCell id="ePe9VbSAZ152NeF6bydD-36" value="Data Drive" style="rounded=0;whiteSpace=wrap;html=1;fillColor=#dae8fc;strokeColor=#6c8ebf;fontSize=21;" vertex="1" parent="1">
          <mxGeometry x="1440" y="450" width="120" height="60" as="geometry" />
        </mxCell>
        <mxCell id="ePe9VbSAZ152NeF6bydD-37" value="Parity&amp;nbsp;Drive" style="rounded=0;whiteSpace=wrap;html=1;fillColor=#fff2cc;strokeColor=#d6b656;fontSize=21;" vertex="1" parent="1">
          <mxGeometry x="1620" y="450" width="120" height="60" as="geometry" />
        </mxCell>
        <mxCell id="ePe9VbSAZ152NeF6bydD-51" style="edgeStyle=orthogonalEdgeStyle;rounded=0;orthogonalLoop=1;jettySize=auto;html=1;exitX=0.5;exitY=1;exitDx=0;exitDy=0;entryX=0.5;entryY=0;entryDx=0;entryDy=0;fontSize=32;" edge="1" parent="1" source="ePe9VbSAZ152NeF6bydD-41" target="ePe9VbSAZ152NeF6bydD-27">
          <mxGeometry relative="1" as="geometry" />
        </mxCell>
        <mxCell id="ePe9VbSAZ152NeF6bydD-41" value="&lt;font style=&quot;font-size: 21px&quot;&gt;client:20&lt;/font&gt;" style="rounded=0;whiteSpace=wrap;html=1;fontSize=21;verticalAlign=middle;fillColor=#f8cecc;strokeColor=#b85450;" vertex="1" parent="1">
          <mxGeometry x="1260" y="270" width="120" height="60" as="geometry" />
        </mxCell>
      </root>
    </mxGraphModel>
  </diagram>
</mxfile>
